<svg width="14" height="15" viewBox="0 0 14 15" fill="none" xmlns="http://www.w3.org/2000/svg">
<path d="M11.2335 3.02831H10.213C10.1036 2.21729 9.70725 1.47231 9.09579 0.928401C8.48434 0.384492 7.69824 0.0776551 6.88 0.0635071C6.06176 0.0776551 5.27567 0.384492 4.66421 0.928401C4.05276 1.47231 3.65641 2.21729 3.547 3.02831H2.527C1.96579 3.02868 1.42766 3.25173 1.03075 3.64849C0.633839 4.04525 0.410586 4.5833 0.410004 5.14451V12.86C0.410507 13.4212 0.633608 13.9592 1.03035 14.356C1.42709 14.7528 1.96506 14.9761 2.5262 14.9767H11.2332C11.7945 14.9762 12.3326 14.7531 12.7294 14.3562C13.1263 13.9594 13.3495 13.4213 13.35 12.86V5.14451C13.3494 4.58338 13.1262 4.04541 12.7294 3.64867C12.3326 3.25192 11.7946 3.02881 11.2335 3.02831ZM6.88 1.16311C7.40741 1.17457 7.91512 1.36568 8.31919 1.70483C8.72325 2.04398 8.99948 2.51087 9.1022 3.02831H4.6578C4.76053 2.51087 5.03676 2.04398 5.44082 1.70483C5.84489 1.36568 6.35259 1.17457 6.88 1.16311ZM12.25 12.86C12.2497 13.1296 12.1425 13.388 11.952 13.5787C11.7614 13.7694 11.503 13.8767 11.2334 13.8771H2.5265C2.25695 13.8767 1.99857 13.7693 1.80801 13.5787C1.61746 13.388 1.51029 13.1296 1.51 12.86V5.14451C1.51032 4.87499 1.61753 4.61659 1.80811 4.42601C1.99869 4.23543 2.25708 4.12822 2.5266 4.12791H11.2336C11.5031 4.12828 11.7614 4.23551 11.952 4.42608C12.1425 4.61666 12.2497 4.87502 12.25 5.14451V12.86Z" fill="white" fill-opacity="0.8"/>
</svg>
