<svg width="17" height="19" viewBox="0 0 17 19" fill="none" xmlns="http://www.w3.org/2000/svg">
<g clip-path="url(#clip0_1_405)">
<path d="M0.365467 13.0068L5.54222 7.83008L0.365467 2.65332C0.213123 2.49512 0.135486 2.30029 0.132557 2.06885C0.129627 1.8374 0.207264 1.63965 0.365467 1.47559C0.529529 1.31738 0.727283 1.23975 0.958729 1.24268C1.19017 1.24561 1.385 1.32324 1.5432 1.47559L6.71996 6.65234L11.8967 1.47559C12.0549 1.31738 12.2497 1.23828 12.4812 1.23828C12.7126 1.23828 12.9104 1.31738 13.0745 1.47559C13.2327 1.63965 13.3118 1.8374 13.3118 2.06885C13.3118 2.30029 13.2327 2.49512 13.0745 2.65332L7.89769 7.83008L13.0745 13.0068C13.2327 13.165 13.3118 13.3599 13.3118 13.5913C13.3118 13.8228 13.2327 14.0205 13.0745 14.1846C12.9104 14.3428 12.7126 14.4219 12.4812 14.4219C12.2497 14.4219 12.0549 14.3428 11.8967 14.1846L6.71996 9.00781L1.5432 14.1846C1.385 14.3369 1.19017 14.4146 0.958729 14.4175C0.727283 14.4204 0.529529 14.3428 0.365467 14.1846C0.207264 14.0205 0.129627 13.8228 0.132557 13.5913C0.135486 13.3599 0.213123 13.165 0.365467 13.0068Z" fill="white" fill-opacity="0.8"/>
</g>
<defs>
<clipPath id="clip0_1_405">
<rect width="16.88" height="18" fill="white" transform="matrix(1 0 0 -1 0.129974 18.5)"/>
</clipPath>
</defs>
</svg>
