<svg width="15" height="15" viewBox="0 0 15 15" fill="none" xmlns="http://www.w3.org/2000/svg">
<path d="M14.268 13.202L10.398 9.332C11.099 8.403 11.52 7.251 11.52 6C11.52 2.94 9.03098 0.449997 5.96998 0.449997C2.90998 0.449997 0.419983 2.94 0.419983 6C0.419983 9.061 2.90998 11.55 5.96998 11.55C7.22098 11.55 8.37298 11.129 9.30198 10.428L13.172 14.298C13.323 14.449 13.522 14.526 13.72 14.526C13.918 14.526 14.116 14.45 14.268 14.298C14.571 13.995 14.571 13.505 14.268 13.202ZM1.51998 6C1.51998 3.546 3.51698 1.55 5.96998 1.55C8.42398 1.55 10.42 3.547 10.42 6C10.42 8.453 8.42398 10.45 5.96998 10.45C3.51598 10.45 1.51998 8.454 1.51998 6Z" fill="white" fill-opacity="0.8"/>
</svg>
