<svg width="15" height="35" viewBox="0 0 15 35" fill="none" xmlns="http://www.w3.org/2000/svg">
<g clip-path="url(#clip0_1_403)">
<path d="M5.83757 20.6821C5.63992 20.6821 5.45545 20.6031 5.28415 20.445L0.797528 15.9386C0.659173 15.787 0.589996 15.6157 0.589996 15.4247C0.589996 15.2139 0.66082 15.0376 0.802469 14.896C0.944117 14.7543 1.11706 14.6835 1.3213 14.6835C1.52553 14.6835 1.70342 14.7593 1.85495 14.9108L5.83757 18.9033L9.82019 14.9108C9.97173 14.7593 10.1496 14.6835 10.3538 14.6835C10.5581 14.6835 10.731 14.7543 10.8727 14.896C11.0143 15.0376 11.0851 15.2139 11.0851 15.4247C11.0851 15.6289 11.016 15.8002 10.8776 15.9386L6.39099 20.445C6.24605 20.6031 6.06157 20.6821 5.83757 20.6821Z" fill="white" fill-opacity="0.8"/>
</g>
<defs>
<clipPath id="clip0_1_403">
<rect width="13.45" height="34" fill="white" transform="matrix(1 0 0 -1 0.589996 34.5)"/>
</clipPath>
</defs>
</svg>
