<svg width="18" height="25" viewBox="0 0 18 25" fill="none" xmlns="http://www.w3.org/2000/svg">
<g clip-path="url(#clip0_1_400)">
<path d="M4.56047 18.228C4.36722 18.228 4.19136 18.1835 4.0329 18.0946C3.87443 18.0057 3.7179 17.8685 3.5633 17.683L0.316682 13.6711C0.239382 13.5629 0.175609 13.4469 0.125364 13.3233C0.0751185 13.1996 0.0499959 13.0759 0.0499959 12.9522C0.0499959 12.6894 0.138891 12.4672 0.316682 12.2855C0.494473 12.1038 0.707049 12.013 0.95441 12.013C1.11674 12.013 1.26748 12.0478 1.40662 12.1174C1.54576 12.1869 1.68103 12.3106 1.81244 12.4884L4.5025 15.9669L9.74346 7.5953C9.95217 7.23971 10.2227 7.06192 10.5551 7.06192C10.8025 7.06192 11.0228 7.13729 11.216 7.28803C11.4093 7.43876 11.5059 7.64941 11.5059 7.91996C11.5059 8.05137 11.4769 8.18085 11.4189 8.30839C11.361 8.43594 11.2972 8.55769 11.2276 8.67364L5.49967 17.683C5.25231 18.0463 4.93924 18.228 4.56047 18.228Z" fill="white" fill-opacity="0.92"/>
</g>
<defs>
<clipPath id="clip0_1_400">
<rect width="17.81" height="24" fill="white" transform="matrix(1 0 0 -1 0.0499954 24.5)"/>
</clipPath>
</defs>
</svg>
